<svg width="27" height="24" viewBox="0 0 27 24" fill="none" xmlns="http://www.w3.org/2000/svg">
<path d="M13.3953 9.77929L24.7725 0.0444009C24.6488 0.0174912 24.5233 0 24.3946 0H2.39604C2.26735 0 2.14161 0.018164 2.01831 0.0444009L13.3953 9.77929Z" fill="#4DB1AE"/>
<path d="M14.1113 13.5433C14.0961 13.5567 14.0794 13.5655 14.0638 13.5783C14.0473 13.5907 14.0297 13.6028 14.0133 13.6143C13.9238 13.6775 13.8316 13.7283 13.7375 13.7619C13.7277 13.7656 13.7184 13.7676 13.7091 13.7703C13.6054 13.8036 13.5012 13.8242 13.3968 13.8242C13.3965 13.8242 13.396 13.8242 13.3958 13.8242C13.3956 13.8242 13.3951 13.8242 13.3946 13.8242C13.2902 13.8242 13.1857 13.804 13.0825 13.7703C13.073 13.7673 13.0632 13.7653 13.0536 13.7619C12.9595 13.728 12.8681 13.6772 12.7781 13.6143C12.7612 13.6028 12.744 13.5907 12.7274 13.5783C12.7114 13.5658 12.695 13.5571 12.6793 13.5433L0.0375033 2.72595C0.0147072 2.9086 0 3.09562 0 3.28803V20.6478C0 22.4635 1.0724 23.9354 2.3958 23.9354H24.3943C25.7175 23.9354 26.7901 22.4635 26.7901 20.6478V3.28803C26.7901 3.09562 26.7757 2.90894 26.7524 2.72595L14.1113 13.5433Z" fill="#4DB1AE"/>
</svg>
