<svg width="178" height="29" viewBox="0 0 178 29" fill="none" xmlns="http://www.w3.org/2000/svg">
<path d="M14.872 6.2H17.032V23H14.872V6.2ZM17.296 16.64L22.192 11.384H24.832L19.792 16.64L25.288 23H22.6L17.296 16.64ZM30.7761 23.24C29.6721 23.24 28.8161 23.136 28.2081 22.928C27.6161 22.72 27.1841 22.352 26.9121 21.824C26.6561 21.296 26.5281 20.536 26.5281 19.544C26.5281 18.664 26.6481 17.984 26.8881 17.504C27.1441 17.008 27.5681 16.656 28.1601 16.448C28.7681 16.24 29.6241 16.136 30.7281 16.136H34.2081V14.288C34.2081 13.856 34.1201 13.528 33.9441 13.304C33.7841 13.064 33.5041 12.896 33.1041 12.8C32.7201 12.704 32.1521 12.656 31.4001 12.656C30.2001 12.656 28.8721 12.752 27.4161 12.944V11.36C29.0001 11.216 30.4321 11.144 31.7121 11.144C33.0561 11.144 34.0481 11.248 34.6881 11.456C35.3281 11.648 35.7681 11.992 36.0081 12.488C36.2481 12.984 36.3681 13.752 36.3681 14.792V23H34.2801V21.896C34.1041 22.792 32.9361 23.24 30.7761 23.24ZM31.1361 21.824C31.9201 21.824 32.5841 21.768 33.1281 21.656C33.8481 21.512 34.2081 21.176 34.2081 20.648V17.48H30.8721C30.1841 17.48 29.6881 17.536 29.3841 17.648C29.0801 17.744 28.8801 17.936 28.7841 18.224C28.6881 18.512 28.6401 18.976 28.6401 19.616C28.6401 20.192 28.6961 20.64 28.8081 20.96C28.9201 21.264 29.1201 21.488 29.4081 21.632C29.6961 21.76 30.1281 21.824 30.7041 21.824H31.1361ZM40.1142 7.184H42.2742V9.44H40.1142V7.184ZM40.1142 11.384H42.2742V23H40.1142V11.384ZM50.9404 23.24C49.9164 23.24 49.1484 23.2 48.6364 23.12C48.1244 23.056 47.6124 22.904 47.1004 22.664C46.5724 22.424 46.1884 22.04 45.9484 21.512C45.7084 20.968 45.5884 20.24 45.5884 19.328V15.296C45.5884 14.576 45.6764 13.944 45.8524 13.4C46.0284 12.856 46.2604 12.432 46.5484 12.128C46.7884 11.856 47.1484 11.648 47.6284 11.504C48.1244 11.344 48.6284 11.24 49.1404 11.192C49.7164 11.16 50.3164 11.144 50.9404 11.144C51.7724 11.144 52.3964 11.168 52.8124 11.216C53.2444 11.248 53.7004 11.328 54.1804 11.456C54.6764 11.6 55.0604 11.816 55.3324 12.104C55.6044 12.392 55.8364 12.808 56.0284 13.352C56.2044 13.912 56.2924 14.56 56.2924 15.296V19.328C56.2924 20.688 55.9804 21.68 55.3564 22.304C55.1004 22.56 54.7324 22.76 54.2524 22.904C53.7724 23.048 53.2764 23.144 52.7644 23.192C52.1564 23.224 51.5484 23.24 50.9404 23.24ZM50.9404 21.824C51.6124 21.824 52.1004 21.808 52.4044 21.776C52.7084 21.744 53.0044 21.656 53.2924 21.512C53.5804 21.384 53.7804 21.176 53.8924 20.888C54.0204 20.584 54.0844 20.168 54.0844 19.64V14.936C54.0844 14.216 53.9964 13.696 53.8204 13.376C53.6444 13.04 53.3404 12.824 52.9084 12.728C52.4924 12.616 51.8364 12.56 50.9404 12.56C50.0444 12.56 49.3804 12.616 48.9484 12.728C48.5324 12.824 48.2364 13.04 48.0604 13.376C47.8844 13.696 47.7964 14.216 47.7964 14.936V19.64C47.7964 20.168 47.8524 20.584 47.9644 20.888C48.0924 21.176 48.3004 21.384 48.5884 21.512C48.8764 21.656 49.1724 21.744 49.4764 21.776C49.7804 21.808 50.2684 21.824 50.9404 21.824ZM66.2243 12.8H63.5603V11.384H66.2243V9.512C66.2243 8.248 66.5763 7.344 67.2803 6.8C68.0003 6.24 69.0883 5.96 70.5443 5.96C71.0883 5.96 71.7363 6 72.4883 6.08V7.496C71.8803 7.416 71.2563 7.376 70.6163 7.376C69.8163 7.376 69.2403 7.52 68.8883 7.808C68.5523 8.096 68.3843 8.616 68.3843 9.368V11.384H72.2483V12.8H68.3843V23H66.2243V12.8ZM77.8855 23.24C76.7815 23.24 75.9255 23.136 75.3175 22.928C74.7255 22.72 74.2935 22.352 74.0215 21.824C73.7655 21.296 73.6375 20.536 73.6375 19.544C73.6375 18.664 73.7575 17.984 73.9975 17.504C74.2535 17.008 74.6775 16.656 75.2695 16.448C75.8775 16.24 76.7335 16.136 77.8375 16.136H81.3175V14.288C81.3175 13.856 81.2295 13.528 81.0535 13.304C80.8935 13.064 80.6135 12.896 80.2135 12.8C79.8295 12.704 79.2615 12.656 78.5095 12.656C77.3095 12.656 75.9815 12.752 74.5255 12.944V11.36C76.1095 11.216 77.5415 11.144 78.8215 11.144C80.1655 11.144 81.1575 11.248 81.7975 11.456C82.4375 11.648 82.8775 11.992 83.1175 12.488C83.3575 12.984 83.4775 13.752 83.4775 14.792V23H81.3895V21.896C81.2135 22.792 80.0455 23.24 77.8855 23.24ZM78.2455 21.824C79.0295 21.824 79.6935 21.768 80.2375 21.656C80.9575 21.512 81.3175 21.176 81.3175 20.648V17.48H77.9815C77.2935 17.48 76.7975 17.536 76.4935 17.648C76.1895 17.744 75.9895 17.936 75.8935 18.224C75.7975 18.512 75.7495 18.976 75.7495 19.616C75.7495 20.192 75.8055 20.64 75.9175 20.96C76.0295 21.264 76.2295 21.488 76.5175 21.632C76.8055 21.76 77.2375 21.824 77.8135 21.824H78.2455ZM91.6156 28.28C90.0316 28.28 88.6956 28.192 87.6076 28.016V26.48C89.5276 26.704 90.9276 26.816 91.8076 26.816C92.9116 26.816 93.7116 26.64 94.2076 26.288C94.7196 25.936 94.9756 25.352 94.9756 24.536V21.752C94.9436 22.264 94.5916 22.64 93.9196 22.88C93.2636 23.12 92.4316 23.24 91.4236 23.24C90.2236 23.24 89.2876 23.128 88.6156 22.904C87.9596 22.68 87.4876 22.312 87.1996 21.8C86.9276 21.288 86.7916 20.592 86.7916 19.712V14.984C86.7916 13.608 87.1596 12.624 87.8956 12.032C88.6476 11.44 89.8716 11.144 91.5676 11.144C93.5836 11.144 94.7676 11.6 95.1196 12.512V11.384H97.1356V24.104C97.1356 25.176 96.9356 26.016 96.5356 26.624C96.1356 27.232 95.5356 27.656 94.7356 27.896C93.9356 28.152 92.8956 28.28 91.6156 28.28ZM91.8796 21.8C93.0156 21.8 93.8156 21.664 94.2796 21.392C94.7436 21.12 94.9756 20.608 94.9756 19.856V14.6C94.9756 14.072 94.8876 13.672 94.7116 13.4C94.5516 13.128 94.2476 12.936 93.7996 12.824C93.3516 12.696 92.6956 12.632 91.8316 12.632C91.0156 12.632 90.3996 12.688 89.9836 12.8C89.5836 12.912 89.3036 13.112 89.1436 13.4C88.9996 13.672 88.9276 14.072 88.9276 14.6V19.856C88.9276 20.4 89.0076 20.808 89.1676 21.08C89.3276 21.352 89.6156 21.544 90.0316 21.656C90.4476 21.752 91.0636 21.8 91.8796 21.8ZM104.92 23.24C103.432 23.24 102.384 22.976 101.776 22.448C101.184 21.904 100.888 21.056 100.888 19.904V11.384H103.048V19.784C103.048 20.088 103.072 20.336 103.12 20.528C103.184 20.704 103.288 20.888 103.432 21.08C103.72 21.496 104.424 21.704 105.544 21.704C106.728 21.704 107.56 21.592 108.04 21.368C108.504 21.144 108.736 20.736 108.736 20.144V11.384H110.896V23H108.736V21.584C108.528 22.688 107.256 23.24 104.92 23.24ZM114.645 11.384H116.805V12.8C117.029 11.696 118.301 11.144 120.621 11.144C122.109 11.144 123.149 11.416 123.741 11.96C124.349 12.488 124.653 13.328 124.653 14.48V23H122.493V14.6C122.493 14.296 122.469 14.048 122.421 13.856C122.373 13.664 122.277 13.472 122.133 13.28C121.813 12.88 121.101 12.68 119.997 12.68C119.149 12.68 118.493 12.744 118.029 12.872C117.581 12.984 117.261 13.176 117.069 13.448C116.893 13.72 116.805 14.104 116.805 14.6V23H114.645V11.384ZM132.555 23.24C131.403 23.24 130.499 23.128 129.843 22.904C129.187 22.664 128.707 22.28 128.403 21.752C128.115 21.224 127.971 20.488 127.971 19.544V14.432C127.971 13.264 128.331 12.424 129.051 11.912C129.787 11.4 130.995 11.144 132.675 11.144C133.683 11.144 134.547 11.272 135.267 11.528C136.003 11.784 136.379 12.152 136.395 12.632H136.443L136.395 9.68V6.2H138.555V23H136.443V21.632C136.443 22.064 136.099 22.432 135.411 22.736C134.723 23.072 133.771 23.24 132.555 23.24ZM133.011 21.752C134.211 21.752 135.075 21.616 135.603 21.344C136.131 21.072 136.395 20.608 136.395 19.952V14.216C136.395 13.176 135.331 12.656 133.203 12.656C131.923 12.656 131.091 12.752 130.707 12.944C130.307 13.136 130.107 13.56 130.107 14.216V19.952C130.107 20.608 130.323 21.072 130.755 21.344C131.203 21.616 131.955 21.752 133.011 21.752ZM147.01 23.24C143.458 23.24 141.682 22.056 141.682 19.688V15.104C141.682 13.696 142.082 12.688 142.882 12.08C143.698 11.456 145.01 11.144 146.818 11.144C148.53 11.144 149.762 11.44 150.514 12.032C151.282 12.624 151.666 13.648 151.666 15.104V17.672H143.866V19.424C143.866 20.224 144.146 20.8 144.706 21.152C145.266 21.504 146.13 21.68 147.298 21.68C148.402 21.68 149.706 21.488 151.21 21.104V22.76C149.738 23.08 148.338 23.24 147.01 23.24ZM149.506 16.256V14.432C149.506 13.728 149.29 13.248 148.858 12.992C148.442 12.72 147.722 12.584 146.698 12.584C145.706 12.584 144.986 12.72 144.538 12.992C144.09 13.248 143.866 13.728 143.866 14.432V16.256H149.506ZM158.51 23.24C157.278 23.24 155.95 23.144 154.526 22.952V21.296C156.398 21.6 157.742 21.752 158.558 21.752C159.582 21.752 160.318 21.656 160.766 21.464C161.214 21.256 161.438 20.88 161.438 20.336V19.16C161.438 18.664 161.27 18.312 160.934 18.104C160.598 17.896 160.054 17.792 159.302 17.792H157.982C156.782 17.792 155.862 17.544 155.222 17.048C154.598 16.552 154.286 15.856 154.286 14.96V13.88C154.286 12.056 156.014 11.144 159.47 11.144C159.726 11.144 160.902 11.208 162.998 11.336V12.896C161.574 12.672 160.366 12.56 159.374 12.56C158.238 12.56 157.462 12.672 157.046 12.896C156.63 13.12 156.422 13.496 156.422 14.024V15.008C156.422 15.792 157.134 16.184 158.558 16.184H159.902C162.35 16.184 163.574 17.096 163.574 18.92V19.928C163.574 21.128 163.158 21.984 162.326 22.496C161.494 22.992 160.222 23.24 158.51 23.24Z" fill="white"/>
<path d="M167.4 26L166 24.575L174.575 16L166 7.425L167.4 6L177.4 16L167.4 26Z" fill="#4DB1AE"/>
<path d="M10 26L0 16L10 6L11.4 7.425L2.825 16L11.4 24.575L10 26Z" fill="#4DB1AE"/>
</svg>
