<svg width="24" height="24" viewBox="0 0 24 24" fill="none" xmlns="http://www.w3.org/2000/svg">
<path d="M6.30361 19.7928L7.17241 20.3004C8.63754 21.1549 10.3039 21.6035 12 21.6C13.8987 21.6 15.7548 21.037 17.3335 19.9821C18.9122 18.9272 20.1426 17.4279 20.8692 15.6737C21.5958 13.9196 21.786 11.9893 21.4155 10.1271C21.0451 8.26491 20.1308 6.55435 18.7882 5.21177C17.4456 3.86919 15.7351 2.95488 13.8729 2.58446C12.0107 2.21404 10.0804 2.40415 8.32625 3.13075C6.57208 3.85736 5.07277 5.08781 4.01791 6.66652C2.96304 8.24523 2.40001 10.1013 2.40001 12C2.40001 13.7232 2.85241 15.3756 3.70081 16.8288L4.20721 17.6976L3.42361 20.5788L6.30361 19.7928ZM0.00481605 24L1.62722 18.0384C0.558181 16.2058 -0.00346876 14.1216 1.61187e-05 12C1.61187e-05 5.3724 5.37241 0 12 0C18.6276 0 24 5.3724 24 12C24 18.6276 18.6276 24 12 24C9.87934 24.0034 7.796 23.4422 5.96401 22.374L0.00481605 24ZM7.66921 6.3696C7.83001 6.3576 7.99201 6.3576 8.15281 6.3648C8.21761 6.3696 8.28241 6.3768 8.34721 6.384C8.53801 6.4056 8.74801 6.522 8.81881 6.6828C9.17641 7.49399 9.52441 8.31119 9.86041 9.13079C9.93481 9.31319 9.89041 9.54719 9.74881 9.77519C9.65142 9.92937 9.54608 10.0784 9.43321 10.2216C9.29761 10.3956 9.00601 10.7148 9.00601 10.7148C9.00601 10.7148 8.88721 10.8564 8.93281 11.0328C8.94961 11.1 9.00481 11.1972 9.05521 11.2788L9.12601 11.3928C9.43321 11.9052 9.84601 12.4248 10.35 12.9144C10.494 13.0536 10.6344 13.1964 10.7856 13.3296C11.3472 13.8252 11.9832 14.2296 12.6696 14.5296L12.6756 14.532C12.7776 14.5764 12.8292 14.6004 12.978 14.664C13.0524 14.6952 13.1292 14.7228 13.2072 14.7432C13.2878 14.7637 13.3727 14.7599 13.4511 14.7321C13.5295 14.7043 13.5979 14.6539 13.6476 14.5872C14.5164 13.5348 14.5956 13.4664 14.6028 13.4664V13.4688C14.6632 13.4125 14.7349 13.3698 14.8131 13.3435C14.8913 13.3172 14.9743 13.308 15.0564 13.3164C15.1284 13.3212 15.2016 13.3344 15.2688 13.3644C15.906 13.656 16.9488 14.1108 16.9488 14.1108L17.6472 14.424C17.7648 14.4804 17.8716 14.6136 17.8752 14.742C17.88 14.8224 17.8872 14.952 17.8596 15.1896C17.8212 15.5004 17.7276 15.8736 17.634 16.0692C17.5699 16.2027 17.4848 16.325 17.382 16.4316C17.2609 16.5587 17.1284 16.6744 16.986 16.7772C16.9368 16.8142 16.8867 16.8502 16.836 16.8852C16.6868 16.9799 16.5334 17.068 16.3764 17.1492C16.0674 17.3133 15.7262 17.4075 15.3768 17.4252C15.1548 17.4372 14.9328 17.454 14.7096 17.442C14.7 17.442 14.028 17.3376 14.028 17.3376C12.3219 16.8888 10.7441 16.0481 9.42001 14.8824C9.14881 14.6436 8.89801 14.3868 8.64121 14.1312C7.57321 13.0692 6.76681 11.9232 6.27721 10.8408C6.02662 10.3095 5.89125 9.73128 5.88001 9.14399C5.87507 8.41542 6.11323 7.706 6.55681 7.128C6.64441 7.0152 6.72721 6.8976 6.87001 6.762C7.02241 6.618 7.11841 6.5412 7.22281 6.4884C7.36162 6.41883 7.51305 6.37802 7.66801 6.3684L7.66921 6.3696Z" fill="#4DB1AE"/>
</svg>
