<svg width="24" height="24" viewBox="0 0 24 24" fill="none" xmlns="http://www.w3.org/2000/svg">
<path d="M17.9667 0H6.01427C2.70262 0 0 2.70476 0 6.01905V18C0 21.2952 2.70262 24 6.01427 24H17.9857C21.2974 24 24 21.2952 24 17.981V6.01905C23.981 2.70476 21.2784 0 17.9667 0ZM7.99366 19.4286H4.5678V9.52381H7.99366V19.4286ZM6.2617 8C5.29104 8 4.51071 7.21905 4.51071 6.24762C4.51071 5.27619 5.29104 4.49524 6.2617 4.49524C7.23236 4.49524 8.01269 5.27619 8.01269 6.24762C7.99366 7.21905 7.21332 8 6.2617 8ZM19.4322 19.4286H19.4132H16.5583V14.6286C16.5583 13.4667 16.406 11.981 14.8263 11.981C13.2086 11.981 12.9421 13.2381 12.9421 14.5524V19.4286H10.0872V9.52381H12.7518V10.8571H12.8279C13.2466 10.0952 14.2173 9.50476 15.7399 9.50476C18.8803 9.50476 19.4322 11.3143 19.4322 14V19.4286Z" fill="#4DB1AE"/>
</svg>
